<svg width="543" height="143" viewBox="0 0 543 143" fill="none" xmlns="http://www.w3.org/2000/svg">
<path d="M24.5833 0L55.3994 45.75H-6.23274L24.5833 0Z" fill="#FFF2D9"/>
<path d="M80.4993 0L111.315 45.75H49.6833L80.4993 0Z" fill="#FFF2D9"/>
<path d="M136.417 0L167.233 45.75H105.601L136.417 0Z" fill="#FFF2D9"/>
<path d="M192.333 0L223.149 45.75H161.517L192.333 0Z" fill="#FFF2D9"/>
<path d="M248.249 0L279.065 45.75H217.433L248.249 0Z" fill="#FFF2D9"/>
<path d="M304.167 0L334.983 45.75H273.351L304.167 0Z" fill="#FFF2D9"/>
<path d="M360.083 0L390.899 45.75H329.267L360.083 0Z" fill="#FFF2D9"/>
<path d="M415.999 0L446.815 45.75H385.183L415.999 0Z" fill="#FFF2D9"/>
<path d="M471.917 0L502.733 45.75H441.101L471.917 0Z" fill="#FFF2D9"/>
<path d="M528.583 0L559.399 45.75H497.767L528.583 0Z" fill="#FFF2D9"/>
<rect y="38" width="543" height="123" fill="#FFF2D9"/>
</svg>
