<svg width="34" height="35" viewBox="0 0 34 35" fill="none" xmlns="http://www.w3.org/2000/svg">
<circle cx="17" cy="17.5" r="17" fill="#E77C6F"/>
<path d="M16.9999 30.5C9.90098 30.5 4 24.599 4 17.5C4 10.3882 9.88823 4.5 16.9872 4.5C24.099 4.5 30 10.3882 30 17.5C30 24.599 24.1118 30.5 16.9999 30.5ZM16.9999 28.3333C23.0156 28.3333 27.8333 23.5156 27.8333 17.5C27.8333 11.4843 23.0029 6.66667 16.9872 6.66667C10.9716 6.66667 6.17941 11.4843 6.17941 17.5C6.17941 23.5156 10.9843 28.3333 16.9999 28.3333ZM12.6412 22.8912C12.0804 22.8912 11.6216 22.4323 11.6216 21.8588C11.6216 21.5785 11.7363 21.3362 11.9274 21.1451L15.5471 17.5128L11.9274 13.8804C11.7363 13.6892 11.6216 13.4471 11.6216 13.1667C11.6216 12.6059 12.0804 12.1598 12.6412 12.1598C12.9343 12.1598 13.1637 12.2618 13.3549 12.4657L16.9872 16.0853L20.6578 12.4529C20.8745 12.2363 21.0911 12.1343 21.3589 12.1343C21.9196 12.1343 22.3784 12.5931 22.3784 13.1539C22.3784 13.4343 22.2892 13.651 22.0725 13.8676L18.4402 17.5128L22.0598 21.1323C22.2637 21.3362 22.3657 21.5657 22.3657 21.8588C22.3657 22.4323 21.9069 22.8912 21.3461 22.8912C21.0529 22.8912 20.8107 22.7637 20.6196 22.5725L16.9872 18.9529L13.3804 22.5725C13.1892 22.7765 12.9343 22.8912 12.6412 22.8912Z" fill="white"/>
</svg>
