<svg width="37" height="37" viewBox="0 0 37 37" fill="none" xmlns="http://www.w3.org/2000/svg">
<g clip-path="url(#clip0_537_2)">
<path d="M18.5028 37.0056C28.7216 37.0056 37.0056 28.7216 37.0056 18.5028C37.0056 8.28399 28.7216 0 18.5028 0C8.28399 0 0 8.28399 0 18.5028C0 28.7216 8.28399 37.0056 18.5028 37.0056Z" fill="#D9A644"/>
<path d="M18.1024 31.9623C10.5981 31.9623 4.36035 25.7245 4.36035 18.2203C4.36035 10.7026 10.5846 4.47827 18.0889 4.47827C25.6066 4.47827 31.8444 10.7026 31.8444 18.2203C31.8444 25.7245 25.6201 31.9623 18.1024 31.9623ZM18.1024 29.672C24.4614 29.672 29.554 24.5794 29.554 18.2203C29.554 11.8612 24.4479 6.76861 18.0889 6.76861C11.7298 6.76861 6.66416 11.8612 6.66416 18.2203C6.66416 24.5794 11.7433 29.672 18.1024 29.672ZM23.424 14.448L21.8343 12.8447L22.8178 11.8747C23.2489 11.4436 23.7474 11.4032 24.1515 11.8074L24.4614 12.1172C24.8656 12.5214 24.8252 13.0064 24.394 13.4645L23.424 14.448ZM13.7777 24.0539L11.9184 24.7545C11.622 24.8623 11.2987 24.5794 11.4334 24.2425L12.2014 22.4507L21.0259 13.6531L22.6157 15.2429L13.7777 24.0539Z" fill="white"/>
</g>
<defs>
<clipPath id="clip0_537_2">
<rect width="37" height="37" fill="white"/>
</clipPath>
</defs>
</svg>
