<svg width="34" height="35" viewBox="0 0 34 35" fill="none" xmlns="http://www.w3.org/2000/svg">
<path d="M34 17.5C34 8.11116 26.3888 0.5 17 0.5C7.61116 0.5 0 8.11116 0 17.5C0 26.8888 7.61116 34.5 17 34.5C26.3888 34.5 34 26.8888 34 17.5Z" fill="#D2C0FF"/>
<path d="M26.1936 26.6926C21.1738 31.7124 12.8286 31.7123 7.80887 26.6926C2.78007 21.6638 2.78007 13.3366 7.79977 8.31692C12.8286 3.28812 21.1648 3.27902 26.1936 8.30782C31.2134 13.3276 31.2224 21.6638 26.1936 26.6926ZM24.6615 25.1606C28.9152 20.9068 28.9152 14.0936 24.6616 9.83993C20.4078 5.58613 13.5856 5.59522 9.33187 9.84892C5.07817 14.1026 5.09617 20.8978 9.34987 25.1515C13.6036 29.4052 20.4078 29.4143 24.6615 25.1606Z" fill="white"/>
<path d="M15.9827 18.5365L10.8547 18.5275C10.5844 18.5275 10.332 18.4374 10.1338 18.2391C9.73721 17.8426 9.74621 17.2027 10.1428 16.8062C10.35 16.5989 10.5844 16.5088 10.8637 16.5178L15.9916 16.5088L18.0284 16.4908L23.1473 16.4907C23.4356 16.4907 23.67 16.5809 23.8773 16.7882C24.2828 17.1937 24.2828 17.8425 23.8863 18.2391C23.679 18.4464 23.4176 18.5275 23.1473 18.5275L18.0193 18.5365H15.9827Z" fill="white"/>
</svg>
