<svg width="34" height="35" viewBox="0 0 34 35" fill="none" xmlns="http://www.w3.org/2000/svg">
<path d="M34 17.5C34 8.11116 26.3888 0.5 17 0.5C7.61116 0.5 0 8.11116 0 17.5C0 26.8888 7.61116 34.5 17 34.5C26.3888 34.5 34 26.8888 34 17.5Z" fill="#23C5DB"/>
<path d="M26.1926 26.6921C21.1728 31.7119 12.8276 31.7118 7.80789 26.6921C2.77909 21.6633 2.77909 13.3361 7.79879 8.31644C12.8276 3.28764 21.1638 3.27854 26.1926 8.30734C31.2124 13.3271 31.2214 21.6633 26.1926 26.6921ZM24.6605 25.1601C28.9142 20.9063 28.9142 14.0931 24.6606 9.83944C20.4068 5.58564 13.5846 5.59474 9.3309 9.84844C5.0772 14.1021 5.0952 20.8973 9.3489 25.151C13.6026 29.4047 20.4068 29.4138 24.6605 25.1601ZM17.7302 24.394C17.3336 24.7905 16.6848 24.7905 16.2793 24.385C16.081 24.1867 15.9908 23.9343 15.9908 23.664L15.9819 18.5361L10.8539 18.5271C10.5836 18.5271 10.3312 18.437 10.133 18.2387C9.73639 17.8422 9.7454 17.2023 10.142 16.8058C10.3492 16.5985 10.5836 16.5084 10.8629 16.5174L15.9908 16.5084L16.0179 11.3444C16.0179 11.038 16.099 10.8127 16.2883 10.6234C16.6848 10.2269 17.3337 10.2269 17.7302 10.6234C17.9285 10.8217 18.0186 11.038 18.0186 11.3444L18.0276 16.4904L23.1465 16.4903C23.4348 16.4903 23.6692 16.5805 23.8765 16.7878C24.282 17.1933 24.282 17.8421 23.8855 18.2387C23.6782 18.446 23.4168 18.5271 23.1465 18.5271L18.0185 18.5361L18.0276 23.646C18.0366 23.9254 17.9375 24.1867 17.7302 24.394Z" fill="white"/>
</svg>
