<svg width="45" height="45" viewBox="0 0 45 45" fill="none" xmlns="http://www.w3.org/2000/svg">
<path fill-rule="evenodd" clip-rule="evenodd" d="M21.095 0C19.54 0 18.28 1.26 18.28 2.8125L17.9425 5.175C17.8733 5.65827 17.6795 6.11521 17.3801 6.50086C17.0808 6.88652 16.6862 7.18761 16.2352 7.37452C15.7842 7.56143 15.2923 7.62772 14.8079 7.56687C14.3235 7.50603 13.8633 7.32014 13.4725 7.0275L11.5625 5.595C11.3013 5.33383 10.9913 5.12666 10.6501 4.98532C10.3088 4.84397 9.9431 4.77123 9.57375 4.77123C9.2044 4.77123 8.83867 4.84397 8.49744 4.98532C8.15621 5.12666 7.84616 5.33383 7.585 5.595L5.595 7.585C4.495 8.685 4.495 10.4625 5.595 11.56L7.0275 13.4725C7.32011 13.8631 7.50603 14.3231 7.56701 14.8073C7.62798 15.2916 7.56191 15.7833 7.37527 16.2343C7.18864 16.6852 6.88787 17.0798 6.50254 17.3793C6.1172 17.6788 5.66056 17.8729 5.1775 17.9425L2.8125 18.2825C1.26 18.2825 0 19.54 0 21.0925V23.9075C0 25.4575 1.26 26.7175 2.8125 26.7175L5.175 27.0575C5.65827 27.1267 6.11521 27.3205 6.50086 27.6199C6.88652 27.9192 7.18761 28.3138 7.37452 28.7648C7.56143 29.2158 7.62772 29.7077 7.56687 30.1921C7.50603 30.6765 7.32014 31.1367 7.0275 31.5275L5.595 33.4375C4.495 34.5375 4.495 36.3175 5.595 37.415L7.585 39.405C8.685 40.505 10.4625 40.505 11.56 39.405L13.4725 37.9725C13.8631 37.6799 14.3231 37.494 14.8073 37.433C15.2916 37.372 15.7833 37.4381 16.2343 37.6247C16.6852 37.8114 17.0798 38.1121 17.3793 38.4975C17.6788 38.8828 17.8729 39.3394 17.9425 39.8225L18.2825 42.1875C18.2825 43.74 19.54 45 21.0925 45H23.9075C25.4575 45 26.7175 43.74 26.7175 42.1875L27.0575 39.825C27.1267 39.3417 27.3205 38.8848 27.6199 38.4991C27.9192 38.1135 28.3138 37.8124 28.7648 37.6255C29.2158 37.4386 29.7077 37.3723 30.1921 37.4331C30.6765 37.494 31.1367 37.6799 31.5275 37.9725L33.4375 39.405C34.5375 40.505 36.3175 40.505 37.415 39.405L39.405 37.415C40.5025 36.315 40.5025 34.5375 39.405 33.44L37.9725 31.5275C37.6799 31.1369 37.494 30.6769 37.433 30.1927C37.372 29.7084 37.4381 29.2167 37.6247 28.7657C37.8114 28.3148 38.1121 27.9202 38.4975 27.6207C38.8828 27.3212 39.3394 27.1271 39.8225 27.0575L42.1875 26.7175C43.74 26.7175 45 25.46 45 23.9075V21.0925C45 19.5425 43.74 18.2825 42.1875 18.2825L39.825 17.9425C39.3417 17.8733 38.8848 17.6795 38.4991 17.3801C38.1135 17.0808 37.8124 16.6862 37.6255 16.2352C37.4386 15.7842 37.3723 15.2923 37.4331 14.8079C37.494 14.3235 37.6799 13.8633 37.9725 13.4725L39.405 11.5625C40.5025 10.4625 40.5025 8.6825 39.405 7.585L37.415 5.595C36.8877 5.06831 36.1728 4.77248 35.4275 4.77248C34.6822 4.77248 33.9673 5.06831 33.44 5.595L31.5275 7.0275C31.1369 7.32011 30.6769 7.50603 30.1927 7.56701C29.7084 7.62798 29.2167 7.56191 28.7657 7.37527C28.3148 7.18864 27.9202 6.88787 27.6207 6.50254C27.3212 6.1172 27.1271 5.66056 27.0575 5.1775L26.7175 2.8125C26.7175 1.26 25.46 0 23.9075 0H21.095ZM22.5 28.125C23.9918 28.125 25.4226 27.5324 26.4775 26.4775C27.5324 25.4226 28.125 23.9918 28.125 22.5C28.125 21.0082 27.5324 19.5774 26.4775 18.5225C25.4226 17.4676 23.9918 16.875 22.5 16.875C21.0082 16.875 19.5774 17.4676 18.5225 18.5225C17.4676 19.5774 16.875 21.0082 16.875 22.5C16.875 23.9918 17.4676 25.4226 18.5225 26.4775C19.5774 27.5324 21.0082 28.125 22.5 28.125Z" fill="#28356A"/>
</svg>
