<svg width="64" height="64" viewBox="0 0 64 64" fill="none" xmlns="http://www.w3.org/2000/svg">
<mask id="mask0_146_2" style="mask-type:alpha" maskUnits="userSpaceOnUse" x="10" y="10" width="43" height="44">
<circle cx="31.5" cy="32.0662" r="21.5" fill="#D9D9D9"/>
</mask>
<g mask="url(#mask0_146_2)">
<circle cx="29.4717" cy="37.3398" r="38.1321" fill="#23C5DB"/>
<path d="M20.1133 57.5469C16.0312 57.5469 13.9805 55.5352 13.9805 51.4922V31.2773C13.9805 27.2344 16.0312 25.2227 20.1133 25.2227H23.6484C24.0195 21.2578 27.2031 18.25 31.3047 18.25C35.4258 18.25 38.6094 21.2773 38.9805 25.2227H42.5156C46.5781 25.2227 48.6484 27.2539 48.6484 31.2773V51.4922C48.6484 55.5156 46.5977 57.5469 43.1016 57.5469H20.1133ZM31.3047 21.2188C28.8633 21.2188 27.125 22.8398 26.8125 25.2227H35.8164C35.5039 22.8398 33.7656 21.2188 31.3047 21.2188Z" fill="#FAFEFF"/>
</g>
<path fill-rule="evenodd" clip-rule="evenodd" d="M31.7981 63.5962C49.3597 63.5962 63.5962 49.3597 63.5962 31.7981C63.5962 14.2365 49.3597 0 31.7981 0C14.2365 0 0 14.2365 0 31.7981C0 49.3597 14.2365 63.5962 31.7981 63.5962ZM31.4006 53.2618C43.0352 53.2618 52.4669 43.8302 52.4669 32.1956C52.4669 20.561 43.0352 11.1293 31.4006 11.1293C19.766 11.1293 10.3344 20.561 10.3344 32.1956C10.3344 43.8302 19.766 53.2618 31.4006 53.2618Z" fill="#AD7405"/>
<circle cx="2.78233" cy="2.78233" r="2.78233" transform="matrix(-1 0 0 1 7.94946 28.6184)" fill="#D9A644"/>
<circle cx="2.78233" cy="2.78233" r="2.78233" transform="matrix(-1 0 0 1 15.8989 11.1294)" fill="#D9A644"/>
<circle cx="2.78233" cy="2.78233" r="2.78233" transform="matrix(-1 0 0 1 53.2617 48.4922)" fill="#D9A644"/>
<circle cx="2.78233" cy="2.78233" r="2.78233" transform="matrix(-1 0 0 1 53.2617 11.1294)" fill="#D9A644"/>
<circle cx="2.78233" cy="2.78233" r="2.78233" transform="matrix(-1 0 0 1 15.8989 47.6973)" fill="#D9A644"/>
<circle cx="2.78233" cy="2.78233" r="2.78233" transform="matrix(-1 0 0 1 34.9778 3.17993)" fill="#D9A644"/>
<circle cx="2.78233" cy="2.78233" r="2.78233" transform="matrix(-1 0 0 1 34.9778 55.6467)" fill="#D9A644"/>
<circle cx="2.78233" cy="2.78233" r="2.78233" transform="matrix(-1 0 0 1 61.2114 28.6184)" fill="#D9A644"/>
</svg>
